<svg xmlns="http://www.w3.org/2000/svg" version="1.1" width="96" height="96" viewBox="26 26 44 44">
  <rect x="0" y="0" width="96" height="96" fill="#FFFFFF"></rect>
  <g transform="translate(23.977263157894733, 62.52)">
    <path d="M16.94-14.45L16.94-14.45Q16.94 0.48 26.21 0.48L26.21 0.48Q27.41 0.48 27.79 0.43L27.79 0.43Q30.72 0.05 33.41-1.34 36.1-2.74 37.68-4.7L37.68-4.7Q38.21-5.23 38.59-5.23L38.59-5.23Q39.02-5.23 39.34-4.82 39.65-4.42 39.5-3.98L39.5-3.98Q39.17-3.22 36.96-1.34L36.96-1.34Q31.92 2.83 25.39 2.83L25.39 2.83Q21.65 2.83 18.53 1.54L18.53 1.54Q14.59 0 12.05-3.19 9.5-6.38 8.78-10.7L8.78-10.7Q8.5-12.38 8.5-14.54L8.5-14.54Q8.5-21.94 12.67-26.64L12.67-26.64Q16.7-31.06 23.28-31.73L23.28-31.73Q23.95-31.82 24.19-31.82L24.19-31.82Q24.24-31.82 24.62-31.87L24.62-31.87Q25.01-31.87 25.3-31.87L25.3-31.87Q27.98-31.87 31.01-30.67L31.01-30.67Q33.26-29.66 35.04-29.66L35.04-29.66Q35.66-29.66 36.1-30.05 36.53-30.43 36.53-31.01L36.53-31.01Q36.53-31.39 36.79-31.63 37.06-31.87 37.39-31.87 37.73-31.87 37.92-31.68L37.92-31.68Q38.16-31.44 38.21-30.86L38.21-30.86Q38.21-30.24 38.21-26.3L38.21-26.3Q38.21-22.32 38.18-21.72 38.16-21.12 37.92-20.88L37.92-20.88Q37.73-20.69 37.39-20.69 37.06-20.69 36.84-20.9 36.62-21.12 36.58-21.26L36.58-21.26Q36.53-21.41 36.34-21.94L36.34-21.94Q35.71-24 33.6-26.14 31.49-28.27 28.99-29.38L28.99-29.38Q27.07-30.19 25.49-30.19L25.49-30.19Q24.34-30.19 23.28-29.76L23.28-29.76Q21.07-28.9 19.51-26.33 17.95-23.76 17.33-19.92L17.33-19.92Q16.94-17.76 16.94-14.45ZM19.34-28.94L19.34-28.94Q19.58-29.18 19.54-29.18L19.54-29.18Q19.2-29.18 17.71-28.37L17.71-28.37Q10.13-24.53 10.13-14.5L10.13-14.5Q10.13-3.36 19.63 0.19L19.63 0.19Q19.82 0.24 19.92 0.29L19.92 0.29Q20.06 0.34 20.16 0.38L20.16 0.38 20.26 0.38Q20.06 0.19 19.82 0L19.82 0Q15.22-4.08 15.22-14.5L15.22-14.5Q15.22-20.93 17.09-25.2L17.09-25.2Q18.1-27.65 19.34-28.94ZM36.53-25.34L36.53-28.32Q35.86-27.98 34.75-27.98L34.75-27.98 34.13-28.03 34.85-27.26Q35.18-26.93 36.53-25.34L36.53-25.34ZM28.9-18.26Q28.9-18.19 28.82-18.19 28.75-18.19 28.75-18.26 28.75-18.34 28.82-18.34 28.9-18.34 28.9-18.26ZM28.9-18.26Q28.9-18.19 28.82-18.19 28.75-18.19 28.75-18.26 28.75-18.34 28.82-18.34 28.9-18.34 28.9-18.26Z" fill="#404040"></path>
  </g>
</svg>